# xmcd
#
# Track frame offsets: 
#        150
#        20538
#        45938
#        67917
#        87334
#        106185
#        128445
#        150656
#        187743
#        209205
#        232605
#        253336
#        274986
#        295063
#        308799
#        326817
#
# Disc length: 4576 seconds
#
# Revision: 2
# Processed by: cddbd v1.5.2PL0 Copyright (c) Steve Scherf et al.
# Submitted via: ExactAudioCopy v0.99pb5
#
DISCID=d611de10
DTITLE=Will Downing - A Love Supreme (The Collection) (comp) (2002)
DYEAR=2002
DGENRE=Soul
TTITLE0=A Love Supreme
TTITLE1=Free
TTITLE2=In My Dreams
TTITLE3=Sendin' Out An S.O.S.
TTITLE4=Test Of Time
TTITLE5=Come Together As One
TTITLE6=The Love We Share
TTITLE7=Wishing On A Star
TTITLE8=Giving My All To You
TTITLE9=The World Is A Ghetto
TTITLE10=Lover's Paradise
TTITLE11=Don't Wait For Love (feat. Jonathan Butler)
TTITLE12=All About You
TTITLE13=Michelle
TTITLE14=Grandma's Hands
TTITLE15=Where Is The Love (feat. Mica Paris)
EXTD=
EXTT0=
EXTT1=
EXTT2=
EXTT3=
EXTT4=
EXTT5=
EXTT6=
EXTT7=
EXTT8=
EXTT9=
EXTT10=
EXTT11=
EXTT12=
EXTT13=
EXTT14=
EXTT15=
PLAYORDER=
